<svg width="396" height="202.06182306774699" viewBox="0 0 160 81.64114063343312" class="looka-1j8o68f"><defs id="SvgjsDefs1161"></defs><g id="SvgjsG1162" featurekey="HKaMnE-0" transform="matrix(1.25,0,0,1.25,6.000000223517418,34.000000298023224)" fill="#1891ac"><path xmlns="http://www.w3.org/2000/svg" d="M17.063 0l-.031.156-5 22-.188.844h3.094l.031-.156 5-22 .188-.844h-3.094zm-7.063 3l-.406.313-9 7-.594.469v1.438l.594.469 9 7 .406.313v-3.781l-6.063-4.719 6.063-4.719v-3.781zm12 0v3.781l6.063 4.719-6.063 4.719v3.781l.406-.313 9-7 .594-.469v-1.438l-.594-.469-9-7-.406-.313z" transform="translate(0 4)"></path></g><g id="SvgjsG1163" featurekey="J3GnXt-0" transform="matrix(3.6469730022522993,0,0,3.6469730022522993,54.52954049662155,8.701680588387141)" fill="#d2ecf9"><path d="M6.54 5.84 c1.5067 0 2.8134 0.31 3.92 0.93 s1.9533 1.47 2.54 2.55 s0.88 2.28 0.88 3.6 s-0.32666 2.5234 -0.98 3.61 s-1.5667 1.9367 -2.74 2.55 s-2.48 0.92 -3.92 0.92 l-4.74 0 l0 -14.16 l5.04 0 z M5.94 18.2 c1.08 0 2.07 -0.21002 2.97 -0.63002 s1.6133 -1.0233 2.14 -1.81 s0.79 -1.7333 0.79 -2.84 c0 -1.6 -0.49666 -2.88 -1.49 -3.84 s-2.31 -1.44 -3.95 -1.44 l-2.98 0 l0 10.56 l2.52 0 z M19.16 5.84 l7.8 11.64 l0.04 0 l0 -11.64 l1.92 0 l0 14.16 l-2.44 0 l-7.88 -11.64 l-0.04 0 l0 11.64 l-1.92 0 l0 -14.16 l2.52 0 z"></path></g></svg>